SiMBALORD PRESENTS
... A UKB RELEASE TiTLE: Step Up 3
TYPE : x264 BDRip
SiZE : 1.94 GB (2,088,521,354 bytes)
PS3 : Yes, Tested PLOT : A tight-knit group of New York City
street dancers, including Luke and Natalie,
team up with NYU freshman Moose, and find
themselves pitted against the world's best
hip hop dancers in a high-stakes showdown
that will change their lives forever. CAST : Rick Malambri ... Luke
Adam G. Sevani ... Moose
Sharni Vinson ... Natalie
Alyson Stoner ... Camille
Kendra Andrews ... Anala
Stephen Boss ... Jason
Martín Lombard ... The Santiago Twins
Oren Michaeli ... Carlos
Joe Slaughter ... Julien
Daniel Campos ... Kid Darkness iMDB : tt1193631 General
Complete name : Step.Up.3.mp4
Format : MPEG-4
Format profile : Base Media
Codec ID : isom
File size : 1.95 GiB
Duration : 1h 47mn
Overall bit rate : 2 599 Kbps
Writing application : Lavf52.87.1 Video
ID : 1
Format : AVC
Format/Info : Advanced Video Codec
Format profile : High@L4.1
Format settings, CABAC : Yes
Format settings, ReFrames : 3 frames
Codec ID : avc1
Codec ID/Info : Advanced Video Coding
Duration : 1h 47mn
Bit rate mode : Variable
Bit rate : 2 400 Kbps
Width : 1 280 pixels
Height : 688 pixels
Display aspect ratio : 1.860
Frame rate mode : Constant
Frame rate : 24.000 fps
Resolution : 8 bits
Colorimetry : 4:2:0
Scan type : Progressive
Bits/(Pixel*Frame) : 0.114
Stream size : 1.80 GiB (92%)
Writing library : x264 core 110
Encoding settings : cabac=1 / ref=3 / deblock=1:0:0 / analyse=0x3:0x133 / me=hex / subme=7 / psy=1 /
psy_rd=1.00:0.00 / mixed_ref=1 / me_range=16 / chroma_me=1 / trellis=1 / 8x8dct=1 /
cqm=0 / deadzone=21,11 / fast_pskip=1 / chroma_qp_offset=-2 / threads=6 /
sliced_threads=0 / nr=0 / decimate=1 / interlaced=0 / constrained_intra=0 / bframes=3 /
b_pyramid=1 / b_adapt=2 / b_bias=0 / direct=3 / weightb=1 / open_gop=0 / weightp=2 /
keyint=240 / keyint_min=24 / scenecut=40 / intra_refresh=0 / rc_lookahead=40 /
rc=2pass / mbtree=1 / bitrate=2400 / ratetol=1.0 / qcomp=0.60 / qpmin=10 / qpmax=51 /
qpstep=4 / cplxblur=20.0 / qblur=0.5 / vbv_maxrate=31250 / vbv_bufsize=31250 /
ip_ratio=1.40 / aq=1:1.00 / nal_hrd=none
Language : English Audio
ID : 2
Format : AAC
Format/Info : Advanced Audio Codec
Format version : Version 4
Format profile : LC
Format settings, SBR : No
Codec ID : 40
Duration : 1h 47mn
Bit rate mode : Variable
Bit rate : 192 Kbps
Channel(s) : 6 channels
Channel positions : Front: L C R, Rear: L R, LFE
Sampling rate : 48.0 KHz
Stream size : 147 MiB (7%)
